<?xml version="1.0" encoding="UTF-8"?>
<svg width="216px" height="315px" viewBox="0 0 216 315" version="1.1" xmlns="http://www.w3.org/2000/svg" xmlns:xlink="http://www.w3.org/1999/xlink" xmlns:sketch="http://www.bohemiancoding.com/sketch/ns">
    <!-- Generator: Sketch 3.3.2 (12043) - http://www.bohemiancoding.com/sketch -->
    <title>logo</title>
    <desc>Created with Sketch.</desc>
    <defs></defs>
    <g id="Page-1" stroke="none" stroke-width="1" fill="none" fill-rule="evenodd" sketch:type="MSPage">
        <g id="only-head-black-background" sketch:type="MSArtboardGroup" transform="translate(-52.000000, -2.000000)" fill="#FFFFFF">
            <g id="logo" sketch:type="MSLayerGroup" transform="translate(52.000000, 2.000000)">
                <path d="M160.477492,185.658667 L134.990659,212.543333 L134.990659,261.690333 C134.990659,265.431833 134.990659,268.237667 134.617038,271.0435 C133.49267,285.822833 124.508238,294.988167 107.471092,294.988167 C90.2459676,294.988167 81.2603676,285.822833 80.1371676,271.0435 C79.7635459,268.237667 79.7635459,265.431833 79.7635459,261.690333 L79.5977514,212.053333 L53.7910054,185.658667 L54.1144216,259.071167 C54.1144216,264.496167 54.1144216,268.237667 54.4880432,274.223833 C56.1740108,295.737167 71.1515676,314.255667 107.471092,314.255667 C143.366789,314.255667 158.368865,295.975167 160.214789,274.642667 C160.226465,274.5015 160.253319,274.365 160.263827,274.223833 C160.639784,268.237667 160.639784,264.496167 160.639784,259.071167 L160.802076,185.658667 L160.477492,185.658667" id="Fill-8" sketch:type="MSShapeGroup"></path>
                <path d="M214.208951,167.6605 C215.555157,166.948833 215.828368,165.8895 215.768822,164.663333 C215.717449,163.613333 215.458249,162.544667 215.118486,161.543667 C214.186768,158.8055 212.420238,156.643667 210.194854,154.84 C209.662443,154.4095 209.304,154.051333 209.462789,153.206667 C209.8656,151.067 210.241557,148.901667 210.355978,146.731667 C210.765795,138.887 211.148757,131.037667 211.376432,123.186 C211.537557,117.608167 211.454659,112.023333 211.428973,106.440833 C211.423135,105.214667 211.25267,103.979167 211.064692,102.7635 C210.736605,100.647167 210.37933,98.5343333 209.952,96.4355 C209.614573,94.7811667 209.229276,93.128 208.735395,91.5145 C207.713773,88.1696667 206.653622,84.8353333 205.515243,81.529 C204.85907,79.6203333 204.100151,77.7373333 203.248995,75.908 C201.906292,73.0263333 200.551914,70.14 199.008389,67.3656667 C197.314249,64.3218333 195.51853,61.3188333 193.544173,58.4511667 C191.448389,55.4096667 189.140108,52.5105 186.834162,49.6206667 C183.779805,45.7928333 180.23507,42.4188333 176.536216,39.2385 C172.644714,35.8913333 168.462486,32.9175 164.072432,30.2248333 C157.6368,26.278 150.843892,23.1011667 143.724065,20.6488333 C135.059546,17.6645 126.453405,14.567 118.543135,9.84666667 C114.694832,7.55183333 110.969124,5.103 108.669016,0.743166667 L108.669016,220.109167 C108.846486,220.057833 108.962076,220.057833 109.028627,219.9995 C112.279135,217.1365 115.538984,214.281667 118.769643,211.397667 C121.899892,208.602333 125.010292,205.786 128.098508,202.945167 C128.348368,202.715333 128.535178,202.1775 128.449946,201.863667 C128.038962,200.3505 127.463351,198.879333 127.058205,197.363833 C126.308627,194.570833 125.608086,191.763833 124.943741,188.948667 C124.476714,186.9665 124.078573,184.966833 123.695611,182.966 C123.312649,180.964 122.907503,178.962 122.654141,176.941333 C122.043503,172.057667 121.771459,167.150667 122.016649,162.2285 C122.124065,160.0795 122.429968,157.955 123.421232,155.999667 C123.828714,155.198167 124.29107,154.530833 125.312692,154.278833 C132.83533,152.419167 140.205016,150.049667 147.396065,147.184333 C154.18547,144.477667 160.930508,141.645 167.583308,138.623333 C173.662832,135.861833 179.599914,132.7865 185.584865,129.820833 C187.27667,128.983167 188.919438,128.045167 190.789881,127.043 L190.789881,128.322833 C190.789881,137.046 190.777038,145.768 190.812065,154.49 C190.815568,155.267 190.568043,155.674167 189.910703,156.016 C185.394551,158.362167 180.899416,160.746833 176.384432,163.0965 C173.108238,164.801 169.825038,166.492667 166.543005,168.187833 L166.543005,200.505667 C169.558832,195.749167 173.094227,191.315833 177.278789,187.297833 C188.007568,176.993833 200.393124,170.448833 214.208951,167.6605" id="Fill-7" sketch:type="MSShapeGroup"></path>
                <path d="M48.2112,256.121833 L48.2112,167.472667 C46.9584,166.817 45.7067676,166.157833 44.4539676,165.503333 C38.353427,162.316 32.2540541,159.126333 26.1243243,155.996167 C25.3840865,155.618167 25.2603243,155.191167 25.2614919,154.470167 C25.2813405,145.748167 25.2743351,137.026167 25.2743351,128.304167 L25.2743351,127.187667 C25.6421189,127.3125 25.911827,127.366167 26.1465081,127.488667 C29.8278486,129.410167 33.4461405,131.4635 37.1952,133.2415 C44.9571892,136.922333 52.7110054,140.638167 60.6107676,144.0075 C70.3576216,148.164333 80.3508324,151.688833 90.6499459,154.261333 C91.7579676,154.537833 92.3779459,155.171333 92.7480649,156.160667 C93.6167351,158.478833 94.1491459,160.864667 94.1549838,163.353167 C94.1643243,167.5555 94.2588973,171.753167 93.3657081,175.91 C92.8134486,178.476667 92.5729297,181.108667 92.0615351,183.684667 C91.4310486,186.860333 90.6826378,190.0115 89.950573,193.165 C89.4275027,195.420167 88.8483892,197.6625 88.2879568,199.908333 C88.2470919,200.0705 88.1653622,200.223333 88.0871351,200.373833 C87.3830919,201.730667 87.4508108,202.522833 88.5541622,203.547167 C90.495827,205.350833 92.4818595,207.1055 94.4643892,208.864833 C96.8287135,210.9625 99.2140541,213.038 101.581881,215.132167 C103.448822,216.783 105.304086,218.449 107.271438,220.203667 L107.271438,0.918166667 C106.755373,1.743 106.370076,2.78133333 105.641514,3.444 C103.560908,5.33633333 101.484973,7.29283333 99.1486703,8.834 C93.6354162,12.4705 87.5815784,15.078 81.4226595,17.4171667 C75.9409297,19.4996667 70.3517838,21.3173333 64.9424432,23.569 C61.0591135,25.1848333 57.2890378,27.1471667 53.6579027,29.2763333 C50.0372757,31.4008333 46.5801081,33.8263333 43.1906595,36.3101667 C40.7843027,38.0741667 38.5332324,40.0715 36.3545514,42.1155 C34.2786162,44.0626667 32.3194378,46.1475 30.4326486,48.2801667 C28.3462054,50.6368333 26.3321514,53.0623333 24.4185081,55.559 C23.0442811,57.3498333 21.8066595,59.2585 20.6496,61.1986667 C18.6040216,64.6286667 16.5841297,68.0796667 14.7136865,71.6053333 C13.6056649,73.6948333 12.7930378,75.9406667 11.8694919,78.1258333 C11.4701838,79.0708333 11.1059027,80.0333333 10.7591351,80.9993333 C9.81107027,83.6371667 8.80812973,86.2586667 7.96397838,88.9291667 C7.20972973,91.322 6.49050811,93.744 6.02348108,96.2033333 C5.43852973,99.2915 4.77885405,102.429833 4.76017297,105.550667 C4.69829189,115.988833 4.43325405,126.436333 5.25288649,136.866333 C5.5260973,140.338333 5.58681081,143.826667 5.78062703,147.305667 C5.83783784,148.3405 5.99545946,149.371833 6.14841081,150.3985 C6.32004324,151.5605 6.55238919,152.714333 6.71935135,153.8775 C6.7427027,154.033833 6.57807568,154.274167 6.43212973,154.3885 C4.59671351,155.8165 3.03567568,157.441667 1.88562162,159.517167 C0.726227027,161.607833 0.0478702703,163.739333 0.403978378,166.114667 C0.467027027,166.531167 0.852324324,166.987333 1.21427027,167.255667 C2.07243243,167.893833 3.00298378,168.432833 3.90901622,169.005667 C7.32415135,171.165167 9.82041081,174.1705 11.888173,177.585333 C13.2448865,179.827667 13.7212541,182.387333 14.0575135,184.863 C14.8736432,190.871333 14.9191784,196.8995 13.7749622,202.9265 C13.1514811,206.217667 12.5571892,209.493667 11.3557622,212.629667 C10.4964324,214.874333 9.64177297,217.121333 8.70888649,219.336833 C8.26054054,220.399667 7.60203243,221.373833 7.11398919,222.422667 C6.97037838,222.730667 7.01124324,223.175167 7.09414054,223.5275 C7.22607568,224.086333 7.47243243,224.618333 7.65690811,225.1655 C8.21967568,226.8315 8.65868108,228.55 9.36038919,230.155333 C10.5769946,232.937833 11.9278703,235.662 13.2729081,238.386167 C14.0773622,240.014833 14.8981622,241.644667 15.8508973,243.187 C17.4317838,245.743167 19.0850595,248.256167 20.7803676,250.738833 C22.3460757,253.030167 23.897773,255.344833 25.6491243,257.490333 C28.2434595,260.668333 30.9568865,263.755333 33.7181838,266.791 C36.0486486,269.353 38.3977946,271.923167 40.9571027,274.248333 C44.0931892,277.0985 47.3203459,279.851833 50.5696865,282.576 C49.5714162,279.176333 48.9024,275.563167 48.6023351,271.735333 C48.2112,265.472667 48.2112,261.549167 48.2112,256.121833" id="Fill-1" sketch:type="MSShapeGroup"></path>
            </g>
        </g>
    </g>
</svg>