<svg width="216" height="315" xmlns="http://www.w3.org/2000/svg"><g fill="#FFF" fill-rule="evenodd"><path d="M160.477 185.659l-25.486 26.884v49.147c0 3.742 0 6.548-.374 9.353-1.124 14.78-10.109 23.945-27.146 23.945-17.225 0-26.21-9.165-27.334-23.945-.373-2.805-.373-5.611-.373-9.353l-.166-49.637L53.79 185.66l.323 73.412c0 5.425 0 9.167.374 15.153 1.686 21.513 16.664 40.032 52.983 40.032 35.896 0 50.898-18.28 52.744-39.613.011-.141.038-.278.049-.42.376-5.985.376-9.727.376-15.152l.162-73.412h-.325"/><path d="M214.209 167.66c1.346-.711 1.62-1.77 1.56-2.997-.052-1.05-.31-2.118-.65-3.12-.932-2.738-2.699-4.9-4.924-6.703-.533-.43-.891-.789-.732-1.633.403-2.14.779-4.305.893-6.475.41-7.845.793-15.694 1.02-23.546.162-5.578.079-11.163.053-16.745-.006-1.226-.176-2.462-.364-3.678-.328-2.116-.686-4.229-1.113-6.328-.337-1.654-.723-3.307-1.217-4.92a298.492 298.492 0 0 0-3.22-9.986 58.204 58.204 0 0 0-2.266-5.621c-1.343-2.882-2.697-5.768-4.24-8.542-1.695-3.044-3.49-6.047-5.465-8.915-2.096-3.041-4.404-5.94-6.71-8.83-3.054-3.828-6.599-7.202-10.298-10.383-3.891-3.347-8.074-6.32-12.464-9.013-6.435-3.947-13.228-7.124-20.348-9.576-8.664-2.985-17.27-6.082-25.18-10.802-3.85-2.295-7.575-4.744-9.875-9.104V220.11c.177-.051.293-.051.36-.11 3.25-2.862 6.51-5.717 9.74-8.601 3.13-2.796 6.241-5.612 9.33-8.453.25-.23.436-.767.35-1.081-.41-1.513-.986-2.985-1.39-4.5-.75-2.793-1.45-5.6-2.115-8.415-.467-1.983-.865-3.982-1.248-5.983-.383-2.002-.788-4.004-1.042-6.025-.61-4.883-.883-9.79-.637-14.713.107-2.149.413-4.273 1.404-6.228.408-.802.87-1.47 1.892-1.721a169.56 169.56 0 0 0 22.083-7.095c6.79-2.706 13.535-5.539 20.187-8.56 6.08-2.762 12.017-5.838 18.002-8.803 1.692-.838 3.334-1.776 5.205-2.778v1.28c0 8.723-.013 17.445.022 26.167.004.777-.244 1.184-.901 1.526-4.516 2.346-9.012 4.73-13.527 7.08-3.276 1.705-6.559 3.397-9.841 5.092v32.318c3.016-4.757 6.551-9.19 10.736-13.208 10.729-10.304 23.114-16.85 36.93-19.637M48.211 256.122v-88.65c-1.253-.655-2.504-1.314-3.757-1.969-6.1-3.187-12.2-6.377-18.33-9.507-.74-.378-.864-.805-.863-1.526.02-8.722.013-17.444.013-26.166v-1.116c.368.124.638.178.873.3 3.68 1.922 7.3 3.976 11.048 5.754 7.762 3.68 15.516 7.396 23.416 10.766 9.747 4.156 19.74 7.68 30.039 10.253 1.108.277 1.728.91 2.098 1.9.869 2.318 1.401 4.704 1.407 7.192.01 4.202.104 8.4-.79 12.557-.552 2.567-.792 5.199-1.303 7.775-.631 3.175-1.38 6.327-2.111 9.48-.523 2.255-1.103 4.498-1.663 6.743-.04.163-.123.315-.2.466-.705 1.357-.637 2.149.466 3.173 1.942 1.804 3.928 3.559 5.91 5.318 2.365 2.097 4.75 4.173 7.118 6.267 1.867 1.651 3.722 3.317 5.69 5.072V.918c-.517.825-.902 1.863-1.63 2.526-2.081 1.892-4.157 3.849-6.493 5.39-5.514 3.636-11.567 6.244-17.726 8.583-5.482 2.083-11.071 3.9-16.48 6.152-3.884 1.616-7.654 3.578-11.285 5.707-3.62 2.125-7.078 4.55-10.467 7.034-2.407 1.764-4.658 3.761-6.836 5.805-2.076 1.948-4.036 4.032-5.922 6.165a133.67 133.67 0 0 0-6.014 7.279c-1.375 1.79-2.612 3.7-3.77 5.64-2.045 3.43-4.065 6.88-5.935 10.406-1.108 2.09-1.921 4.336-2.845 6.52A55.92 55.92 0 0 0 10.76 81c-.948 2.638-1.95 5.26-2.795 7.93-.754 2.393-1.473 4.815-1.94 7.274-.585 3.088-1.245 6.227-1.264 9.348-.062 10.438-.327 20.885.493 31.315.273 3.472.334 6.96.528 10.44.057 1.034.214 2.066.367 3.093.172 1.161.404 2.315.571 3.478.024.157-.14.397-.287.511-1.835 1.428-3.396 3.054-4.546 5.13-1.16 2.09-1.838 4.221-1.482 6.597.063.416.448.872.81 1.14.858.639 1.789 1.178 2.695 1.75 3.415 2.16 5.911 5.166 7.98 8.58 1.356 2.243 1.832 4.802 2.169 7.278.816 6.008.861 12.036-.283 18.064-.624 3.29-1.218 6.567-2.42 9.703-.859 2.244-1.713 4.491-2.646 6.707-.448 1.063-1.107 2.037-1.595 3.086-.144.308-.103.752-.02 1.105.132.558.378 1.09.563 1.638.563 1.666 1.002 3.384 1.703 4.99 1.217 2.782 2.568 5.506 3.913 8.23.804 1.629 1.625 3.259 2.578 4.801 1.58 2.556 3.234 5.07 4.93 7.552 1.565 2.291 3.117 4.606 4.868 6.751 2.594 3.178 5.308 6.265 8.07 9.301 2.33 2.562 4.679 5.132 7.238 7.457 3.136 2.85 6.363 5.604 9.613 8.328-.999-3.4-1.668-7.013-1.968-10.84-.39-6.263-.39-10.187-.39-15.614"/></g></svg>